<svg id="visual" viewBox="0 0 540 960" width="540" height="960" xmlns="http://www.w3.org/2000/svg" xmlns:xlink="http://www.w3.org/1999/xlink" version="1.1"><rect width="540" height="960" fill="#ffffff"></rect><g><g transform="translate(332 583)"><path d="M0 -144L124.7 -72L124.7 72L0 144L-124.7 72L-124.7 -72Z" fill="#73f5b4"></path></g><g transform="translate(146 318)"><path d="M0 -114L98.7 -57L98.7 57L0 114L-98.7 57L-98.7 -57Z" fill="#73f5b4"></path></g><g transform="translate(470 202)"><path d="M0 -98L84.9 -49L84.9 49L0 98L-84.9 49L-84.9 -49Z" fill="#73f5b4"></path></g><g transform="translate(31 726)"><path d="M0 -106L91.8 -53L91.8 53L0 106L-91.8 53L-91.8 -53Z" fill="#73f5b4"></path></g></g></svg>