<svg id="visual" viewBox="0 0 540 960" width="540" height="960" xmlns="http://www.w3.org/2000/svg" xmlns:xlink="http://www.w3.org/1999/xlink" version="1.1"><path d="M0 107L22.5 118.2C45 129.3 90 151.7 135 150C180 148.3 225 122.7 270 117.8C315 113 360 129 405 137C450 145 495 145 517.5 145L540 145L540 0L517.5 0C495 0 450 0 405 0C360 0 315 0 270 0C225 0 180 0 135 0C90 0 45 0 22.5 0L0 0Z" fill="#57db95"></path><path d="M0 366L22.5 374C45 382 90 398 135 394.8C180 391.7 225 369.3 270 348.5C315 327.7 360 308.3 405 317.8C450 327.3 495 365.7 517.5 384.8L540 404L540 143L517.5 143C495 143 450 143 405 135C360 127 315 111 270 115.8C225 120.7 180 146.3 135 148C90 149.7 45 127.3 22.5 116.2L0 105Z" fill="#6aecaa"></path><path d="M0 711L22.5 701.5C45 692 90 673 135 663.5C180 654 225 654 270 668.3C315 682.7 360 711.3 405 719.3C450 727.3 495 714.7 517.5 708.3L540 702L540 402L517.5 382.8C495 363.7 450 325.3 405 315.8C360 306.3 315 325.7 270 346.5C225 367.3 180 389.7 135 392.8C90 396 45 380 22.5 372L0 364Z" fill="#84f6bd"></path><path d="M0 961L22.5 961C45 961 90 961 135 961C180 961 225 961 270 961C315 961 360 961 405 961C450 961 495 961 517.5 961L540 961L540 700L517.5 706.3C495 712.7 450 725.3 405 717.3C360 709.3 315 680.7 270 666.3C225 652 180 652 135 661.5C90 671 45 690 22.5 699.5L0 709Z" fill="#a3f9cd"></path></svg>